<svg xmlns="http://www.w3.org/2000/svg" xmlns:xlink="http://www.w3.org/1999/xlink" width="1080" zoomAndPan="magnify" viewBox="0 0 810 809.999993" height="1080" preserveAspectRatio="xMidYMid meet" version="1.0"><defs><clipPath id="d769934081"><path d="M 1.75 1.75 L 808.25 1.75 L 808.25 808.25 L 1.75 808.25 Z M 1.75 1.75 " clip-rule="nonzero"/></clipPath><clipPath id="40d2ffc3ae"><path d="M 405 1.75 C 182.289062 1.75 1.75 182.289062 1.75 405 C 1.75 627.710938 182.289062 808.25 405 808.25 C 627.710938 808.25 808.25 627.710938 808.25 405 C 808.25 182.289062 627.710938 1.75 405 1.75 Z M 405 1.75 " clip-rule="nonzero"/></clipPath><clipPath id="c3f7622915"><path d="M 175.28125 18.746094 L 635 18.746094 L 635 789 L 175.28125 789 Z M 175.28125 18.746094 " clip-rule="nonzero"/></clipPath></defs><g clip-path="url(#d769934081)"><g clip-path="url(#40d2ffc3ae)"><path fill="#fff847" d="M 1.75 1.75 L 808.25 1.75 L 808.25 808.25 L 1.75 808.25 Z M 1.75 1.75 " fill-opacity="1" fill-rule="nonzero"/></g></g><path fill="#fff847" d="M 302.867188 503.601562 L 302.867188 248.273438 C 302.867188 191.871094 348.59375 146.144531 404.996094 146.144531 C 461.398438 146.144531 507.128906 191.871094 507.128906 248.273438 L 507.128906 503.601562 C 507.128906 517.695312 518.566406 529.136719 532.660156 529.136719 L 583.726562 529.136719 C 597.820312 529.136719 609.261719 517.695312 609.261719 503.601562 L 609.261719 248.273438 C 609.261719 135.46875 517.800781 44.011719 404.996094 44.011719 C 292.191406 44.011719 200.734375 135.46875 200.734375 248.273438 L 200.734375 503.601562 C 200.734375 517.695312 212.171875 529.136719 226.265625 529.136719 L 277.332031 529.136719 C 291.425781 529.136719 302.867188 517.695312 302.867188 503.601562 Z M 302.867188 503.601562 " fill-opacity="1" fill-rule="nonzero"/><g clip-path="url(#c3f7622915)"><path fill="#000000" d="M 567.488281 685.449219 C 577.472656 695.429688 577.472656 711.570312 567.488281 721.550781 C 477.894531 811.121094 332.101562 811.121094 242.507812 721.550781 C 232.523438 711.570312 232.523438 695.429688 242.507812 685.449219 C 247.484375 680.46875 254.019531 677.96875 260.558594 677.96875 C 267.09375 677.96875 273.628906 680.46875 278.609375 685.449219 C 348.289062 755.128906 461.679688 755.128906 531.359375 685.449219 C 541.34375 675.464844 557.480469 675.464844 567.464844 685.449219 Z M 495.28125 649.320312 C 505.265625 639.363281 505.265625 623.199219 495.28125 613.214844 C 485.296875 603.230469 469.160156 603.230469 459.179688 613.214844 C 429.304688 643.0625 380.714844 643.0625 350.84375 613.214844 C 345.863281 608.238281 339.328125 605.734375 332.789062 605.734375 C 326.253906 605.734375 319.71875 608.238281 314.738281 613.214844 C 304.753906 623.199219 304.753906 639.363281 314.738281 649.320312 C 364.503906 699.082031 445.519531 699.082031 495.28125 649.320312 Z M 175.203125 503.601562 L 175.203125 248.273438 C 175.203125 121.578125 278.304688 18.476562 404.996094 18.476562 C 531.691406 18.476562 634.792969 121.578125 634.792969 248.273438 L 634.792969 503.601562 C 634.792969 531.765625 611.890625 554.667969 583.726562 554.667969 L 532.660156 554.667969 C 504.5 554.667969 481.597656 531.765625 481.597656 503.601562 L 481.597656 248.273438 C 481.597656 206.042969 447.230469 171.675781 404.996094 171.675781 C 362.765625 171.675781 328.398438 206.042969 328.398438 248.273438 L 328.398438 503.601562 C 328.398438 531.765625 305.496094 554.667969 277.332031 554.667969 L 226.265625 554.667969 C 198.105469 554.667969 175.203125 531.765625 175.203125 503.601562 Z M 583.726562 478.070312 L 532.660156 478.070312 L 532.660156 503.601562 L 583.726562 503.601562 Z M 226.265625 427.003906 L 277.332031 427.003906 L 277.332031 248.273438 C 277.332031 177.878906 334.601562 120.609375 404.996094 120.609375 C 475.390625 120.609375 532.660156 177.878906 532.660156 248.273438 L 532.660156 427.003906 L 583.726562 427.003906 L 583.726562 248.273438 C 583.726562 149.71875 503.554688 69.542969 404.996094 69.542969 C 306.441406 69.542969 226.265625 149.71875 226.265625 248.273438 Z M 226.265625 503.601562 L 277.332031 503.601562 L 277.332031 478.070312 L 226.265625 478.070312 Z M 226.265625 503.601562 " fill-opacity="1" fill-rule="nonzero"/></g></svg>