<svg xmlns="http://www.w3.org/2000/svg" xmlns:xlink="http://www.w3.org/1999/xlink" width="612" zoomAndPan="magnify" viewBox="0 0 458.88 458.999989" height="612" preserveAspectRatio="xMidYMid meet" version="1.0"><defs><clipPath id="03a7c442d8"><path d="M 0 0.0585938 L 458.761719 0.0585938 L 458.761719 458.9375 L 0 458.9375 Z M 0 0.0585938 " clip-rule="nonzero"/></clipPath><clipPath id="e0ee9cbc5f"><path d="M 99 10.550781 L 359.757812 10.550781 L 359.757812 447 L 99 447 Z M 99 10.550781 " clip-rule="nonzero"/></clipPath></defs><g clip-path="url(#03a7c442d8)"><path fill="#ffffff" d="M 0 0.0585938 L 458.878906 0.0585938 L 458.878906 458.941406 L 0 458.941406 Z M 0 0.0585938 " fill-opacity="1" fill-rule="nonzero"/><path fill="#ffffff" d="M 0 0.0585938 L 458.878906 0.0585938 L 458.878906 458.941406 L 0 458.941406 Z M 0 0.0585938 " fill-opacity="1" fill-rule="nonzero"/></g><path fill="#fff847" d="M 171.582031 285.359375 L 171.582031 140.710938 C 171.582031 108.757812 197.488281 82.851562 229.441406 82.851562 C 261.390625 82.851562 287.296875 108.757812 287.296875 140.710938 L 287.296875 285.359375 C 287.296875 293.34375 293.777344 299.824219 301.761719 299.824219 L 330.691406 299.824219 C 338.675781 299.824219 345.15625 293.34375 345.15625 285.359375 L 345.15625 140.710938 C 345.15625 76.804688 293.34375 24.992188 229.441406 24.992188 C 165.535156 24.992188 113.722656 76.804688 113.722656 140.710938 L 113.722656 285.359375 C 113.722656 293.34375 120.203125 299.824219 128.1875 299.824219 L 157.117188 299.824219 C 165.101562 299.824219 171.582031 293.34375 171.582031 285.359375 Z M 171.582031 285.359375 " fill-opacity="1" fill-rule="nonzero"/><g clip-path="url(#e0ee9cbc5f)"><path fill="#000000" d="M 321.492188 388.375 C 327.148438 394.03125 327.148438 403.171875 321.492188 408.828125 C 270.738281 459.570312 188.144531 459.570312 137.386719 408.828125 C 131.730469 403.171875 131.730469 394.03125 137.386719 388.375 C 140.207031 385.554688 143.910156 384.136719 147.613281 384.136719 C 151.316406 384.136719 155.019531 385.554688 157.839844 388.375 C 197.3125 427.851562 261.550781 427.851562 301.027344 388.375 C 306.679688 382.71875 315.824219 382.71875 321.480469 388.375 Z M 280.585938 367.90625 C 286.242188 362.265625 286.242188 353.109375 280.585938 347.453125 C 274.929688 341.800781 265.789062 341.800781 260.132812 347.453125 C 243.210938 364.363281 215.683594 364.363281 198.761719 347.453125 C 195.941406 344.632812 192.238281 343.214844 188.535156 343.214844 C 184.832031 343.214844 181.128906 344.632812 178.308594 347.453125 C 172.652344 353.109375 172.652344 362.265625 178.308594 367.90625 C 206.5 396.101562 252.394531 396.101562 280.585938 367.90625 Z M 99.257812 285.359375 L 99.257812 140.710938 C 99.257812 68.9375 157.664062 10.527344 229.441406 10.527344 C 301.214844 10.527344 359.621094 68.9375 359.621094 140.710938 L 359.621094 285.359375 C 359.621094 301.3125 346.648438 314.289062 330.691406 314.289062 L 301.761719 314.289062 C 285.808594 314.289062 272.832031 301.3125 272.832031 285.359375 L 272.832031 140.710938 C 272.832031 116.785156 253.363281 97.316406 229.441406 97.316406 C 205.515625 97.316406 186.046875 116.785156 186.046875 140.710938 L 186.046875 285.359375 C 186.046875 301.3125 173.070312 314.289062 157.117188 314.289062 L 128.1875 314.289062 C 112.230469 314.289062 99.257812 301.3125 99.257812 285.359375 Z M 330.691406 270.894531 L 301.761719 270.894531 L 301.761719 285.359375 L 330.691406 285.359375 Z M 128.1875 241.964844 L 157.117188 241.964844 L 157.117188 140.710938 C 157.117188 100.832031 189.5625 68.386719 229.441406 68.386719 C 269.320312 68.386719 301.761719 100.832031 301.761719 140.710938 L 301.761719 241.964844 L 330.691406 241.964844 L 330.691406 140.710938 C 330.691406 84.875 285.273438 39.457031 229.441406 39.457031 C 173.605469 39.457031 128.1875 84.875 128.1875 140.710938 Z M 128.1875 285.359375 L 157.117188 285.359375 L 157.117188 270.894531 L 128.1875 270.894531 Z M 128.1875 285.359375 " fill-opacity="1" fill-rule="nonzero"/></g></svg>